<svg xmlns="http://www.w3.org/2000/svg" viewBox="0 0 550 140.26367"><defs><style>.cls-1{fill:#1d1d1b;}.cls-2{fill:none;}</style></defs><title>1Asset 8new</title><g id="Layer_2" data-name="Layer 2"><g id="Layer_1-2" data-name="Layer 1"><path class="cls-1" d="M114.543,41.64526V31.658h-.082l-4.01953,9.9873h-1.94825l-4.01953-9.9873h-.082v9.9873h-2.75781V26.84937h3.58887l4.2041,10.623h.082l4.2041-10.623h3.58887V41.64526Z"/><path class="cls-1" d="M119.7627,41.64526V26.84937h3.09668V41.64526Z"/><path class="cls-1" d="M134.88672,41.64526h-9.56641V26.84937H128.417V39.08179h6.46973Z"/><path class="cls-1" d="M146.52539,41.64526h-9.80273V26.84937h9.80273V29.4021h-6.706v3.56836h6.32617v2.37891h-6.32617v3.73242h6.706Z"/><path class="cls-1" d="M151.11914,37.42065c.19434,1.24122,1.44531,1.9795,3.127,1.9795,1.65137,0,2.7793-.79981,2.7793-1.88672,0-.97461-.69727-1.52832-2.55371-1.90723l-1.55859-.30762c-2.95313-.585-4.39844-2-4.39844-4.2041,0-2.707,2.3584-4.502,5.64941-4.502,3.45606,0,5.62989,1.80469,5.68067,4.52246h-2.92188c-.10254-1.26172-1.20019-2.02051-2.75879-2.02051-1.52734,0-2.55273.71778-2.55273,1.80469,0,.91309.71777,1.47656,2.46094,1.8252l1.56835.31835c3.12793.625,4.49122,1.88672,4.49122,4.13184,0,2.8916-2.26563,4.7168-5.96778,4.7168-3.52734,0-5.875-1.68164-5.96777-4.47071Z"/><path class="cls-1" d="M165.71,34.24194c0-4.76757,2.71777-7.64941,7.00391-7.64941,3.55761,0,6.26465,2.25586,6.501,5.56836H176.2002a3.42812,3.42812,0,0,0-3.48633-3.00488c-2.33789,0-3.84571,1.959-3.84571,5.07617,0,3.1582,1.48731,5.10644,3.85547,5.10644A3.34116,3.34116,0,0,0,176.21,36.50854h3.01465c-.34863,3.30176-2.88086,5.38282-6.51074,5.38282C168.40723,41.89136,165.71,39.02026,165.71,34.24194Z"/><path class="cls-1" d="M184.66992,41.64526V36.1189l-5.14746-9.26953h3.37305l3.3125,6.3164h.07129l3.32226-6.3164h3.32227L187.7666,36.1189v5.52636Z"/><path class="cls-1" d="M193.09863,34.24194c0-4.76757,2.7168-7.64941,7.00293-7.64941,3.5586,0,6.26563,2.25586,6.501,5.56836h-3.01465a3.42811,3.42811,0,0,0-3.48633-3.00488c-2.33789,0-3.84472,1.959-3.84472,5.07617,0,3.1582,1.48632,5.10644,3.85546,5.10644a3.34182,3.34182,0,0,0,3.48633-2.83008h3.01465c-.34863,3.30176-2.88183,5.38282-6.51172,5.38282C195.79492,41.89136,193.09863,39.02026,193.09863,34.24194Z"/><path class="cls-1" d="M218.08691,41.64526h-9.5664V26.84937h3.09668V39.08179h6.46972Z"/><path class="cls-1" d="M229.72559,41.64526h-9.80274V26.84937h9.80274V29.4021h-6.70606v3.56836h6.32617v2.37891h-6.32617v3.73242h6.70606Z"/><path class="cls-1" d="M237.61035,26.84937c4.44043,0,7.05469,2.6455,7.05469,7.34179s-2.61426,7.4541-7.05469,7.4541h-5.64941V26.84937Zm-2.55273,12.23242h2.18359c2.76856,0,4.26563-1.68164,4.26563-4.88086,0-3.09668-1.53809-4.79883-4.26563-4.79883h-2.18359Z"/><path class="cls-1" d="M250.81738,41.64526V26.84937h6.43946c2.77929,0,4.52246,1.4248,4.52246,3.6914A3.26281,3.26281,0,0,1,259,33.74976v.082a3.58872,3.58872,0,0,1,3.48633,3.5791c0,2.60449-1.958,4.23437-5.11621,4.23437Zm3.09668-8.64355h2.22559c1.65039,0,2.59375-.72852,2.59375-1.97949,0-1.18946-.83008-1.86621-2.27637-1.86621h-2.543Zm2.666,6.33691c1.78418,0,2.748-.75879,2.748-2.17383,0-1.38476-.99414-2.123-2.81933-2.123h-2.59473v4.29687Z"/><path class="cls-1" d="M274.05273,41.64526H264.25V26.84937h9.80273V29.4021h-6.70605v3.56836h6.32715v2.37891h-6.32715v3.73242h6.70605Z"/><path class="cls-1" d="M279.82617,41.64526V29.4021H275.5498V26.84937H287.209V29.4021h-4.28613V41.64526Z"/><path class="cls-1" d="M294.9707,41.64526h-2.92187l-3.917-14.79589h3.209L293.669,37.56421h.082l2.76855-10.71484h2.61426l2.76855,10.71484h.082l2.33789-10.71484h3.21l-3.92774,14.79589h-2.92187l-2.80957-10.11035h-.09278Z"/><path class="cls-1" d="M318.99609,41.64526h-9.80273V26.84937h9.80273V29.4021H312.29v3.56836h6.32617v2.37891H312.29v3.73242h6.70605Z"/><path class="cls-1" d="M331.03418,41.64526h-9.80273V26.84937h9.80273V29.4021h-6.70606v3.56836h6.32618v2.37891h-6.32618v3.73242h6.70606Z"/><path class="cls-1" d="M333.26953,41.64526V26.84937h2.584l6.91113,9.63867h.082V26.84937h2.96289V41.64526h-2.5625l-6.92187-9.68945h-.09278v9.68945Z"/><path class="cls-1" d="M355.52051,36.10815a3.10177,3.10177,0,1,0,6.20312,0V26.84937h3.09766v9.5664c0,3.26074-2.41016,5.47559-6.19336,5.47559-3.79492,0-6.2041-2.21485-6.2041-5.47559v-9.5664h3.09668Z"/><path class="cls-1" d="M369.64062,37.42065c.19434,1.24122,1.44629,1.9795,3.12793,1.9795,1.6504,0,2.77833-.79981,2.77833-1.88672,0-.97461-.69727-1.52832-2.55372-1.90723l-1.55859-.30762c-2.95312-.585-4.39844-2-4.39844-4.2041,0-2.707,2.3584-4.502,5.65039-4.502,3.45508,0,5.62891,1.80469,5.67969,4.52246h-2.92187c-.10254-1.26172-1.19922-2.02051-2.75782-2.02051-1.52832,0-2.55371.71778-2.55371,1.80469,0,.91309.71778,1.47656,2.46094,1.8252l1.56934.31835c3.12695.625,4.49023,1.88672,4.49023,4.13184,0,2.8916-2.26562,4.7168-5.9668,4.7168-3.52734,0-5.876-1.68164-5.96875-4.47071Z"/><path class="cls-1" d="M387.05078,37.42065c.19434,1.24122,1.44629,1.9795,3.12793,1.9795,1.65039,0,2.77832-.79981,2.77832-1.88672,0-.97461-.69726-1.52832-2.55371-1.90723l-1.55859-.30762c-2.95313-.585-4.39844-2-4.39844-4.2041,0-2.707,2.3584-4.502,5.65039-4.502,3.45508,0,5.62891,1.80469,5.67969,4.52246h-2.92188c-.10254-1.26172-1.19922-2.02051-2.75781-2.02051-1.52832,0-2.55371.71778-2.55371,1.80469,0,.91309.71777,1.47656,2.46094,1.8252l1.56933.31835c3.127.625,4.49024,1.88672,4.49024,4.13184,0,2.8916-2.26563,4.7168-5.9668,4.7168-3.52734,0-5.876-1.68164-5.96875-4.47071Z"/><path class="cls-1" d="M411.7627,34.25269c0,4.706-2.75782,7.63867-7.13672,7.63867-4.38868,0-7.13672-2.93262-7.13672-7.63867,0-4.7168,2.748-7.66016,7.13672-7.66016C409.00488,26.59253,411.7627,29.53589,411.7627,34.25269Zm-11.11524,0c0,3.09668,1.54883,5.05468,3.97852,5.05468,2.41992,0,3.96875-1.958,3.96875-5.05468,0-3.10743-1.54883-5.07618-3.96875-5.07618S400.64746,31.14526,400.64746,34.25269Z"/><path class="cls-1" d="M417.90527,41.64526V26.84937h9.68946V29.4021H421.002v3.96875h6.01856V35.821H421.002v5.82422Z"/><path class="cls-1" d="M436.958,38.0564h-5.19922l-1.12793,3.58886h-3.17871l5.13672-14.79589h3.64062L441.377,41.64526h-3.292ZM432.4248,35.739H436.291l-1.89747-6.05957h-.07128Z"/><path class="cls-1" d="M445.98047,41.64526h-3.09668V26.84937h6.06055c3.40429,0,5.35156,1.79394,5.35156,4.71679a4.35057,4.35057,0,0,1-2.68555,4.2041l3.11719,5.875h-3.50781l-2.75782-5.41406h-2.48144Zm0-7.65918h2.666a2.22079,2.22079,0,0,0,2.47168-2.35839,2.26992,2.26992,0,0,0-2.50195-2.3584h-2.63574Z"/><path class="cls-1" d="M127.53613,64.87378v-.24512H97.52051V54.81421h42.20215v9.9375L115.10449,113.824H102.1416Z"/><path class="cls-1" d="M161.27637,79.06421h6.584c6.17481,0,10.18262-3.35352,10.18262-8.17871s-3.3125-7.89258-9.20117-7.89258c-5.80664,0-9.85547,3.1084-10.22266,8.21973H147.291c.61328-10.7959,9.20117-17.707,21.55078-17.707,12.47265,0,20.89648,6.1748,20.89648,15.62109,0,7.52441-5.35644,12.39062-12.30859,13.82226v.24512c8.751.81836,14.47656,6.01172,14.47656,14.1084,0,10.71387-9.2832,17.83008-22.98242,17.83008-13.33106,0-22.40918-7.19727-22.94141-18.03418h11.77735c.40918,4.82519,4.66211,8.09668,11.16406,8.09668,6.1748,0,10.42773-3.43457,10.42773-8.42383.041-5.72559-4.1709-8.915-11.32715-8.915h-6.748Z"/><path class="cls-1" d="M214.03223,79.06421h6.584c6.17481,0,10.18262-3.35352,10.18262-8.17871s-3.3125-7.89258-9.20117-7.89258c-5.80664,0-9.85547,3.1084-10.22266,8.21973H200.04688c.61328-10.7959,9.20117-17.707,21.55078-17.707,12.47265,0,20.89648,6.1748,20.89648,15.62109,0,7.52441-5.35644,12.39062-12.30859,13.82226v.24512c8.751.81836,14.47656,6.01172,14.47656,14.1084,0,10.71387-9.2832,17.83008-22.98242,17.83008-13.33106,0-22.40918-7.19727-22.94141-18.03418h11.77734c.40918,4.82519,4.66211,8.09668,11.16407,8.09668,6.1748,0,10.42773-3.43457,10.42773-8.42383.041-5.72559-4.1709-8.915-11.32715-8.915h-6.748Z"/><path class="cls-1" d="M278.20117,77.30835V63.54565h-.11328l-5.53906,13.7627h-2.68457l-5.53906-13.7627h-.11231v13.7627h-3.80078V56.9187h4.94531l5.793,14.63867h.11328l5.793-14.63867H282.002V77.30835Z"/><path class="cls-1" d="M285.40234,77.30835V56.9187h4.26758V77.30835Z"/><path class="cls-1" d="M306.24609,77.30835H293.06348V56.9187h4.26757V73.77612h8.915Z"/><path class="cls-1" d="M322.29,77.30835H308.78223V56.9187H322.29v3.51856h-9.24121v4.917h8.71777v3.27832h-8.71777v5.14355H322.29Z"/><path class="cls-1" d="M328.626,71.48706c.26855,1.709,1.99218,2.72656,4.30957,2.72656,2.27539,0,3.8291-1.10156,3.8291-2.59961,0-1.34277-.96094-2.10547-3.51758-2.62793l-2.14844-.42382c-4.06933-.80567-6.06152-2.75586-6.06152-5.79395,0-3.72949,3.25-6.20215,7.78613-6.20215,4.76172,0,7.75684,2.48633,7.82715,6.23047H336.624c-.1416-1.7373-1.65332-2.7832-3.80078-2.7832-2.10547,0-3.51855.98926-3.51855,2.48633,0,1.25781.98926,2.03515,3.39062,2.51562l2.16211.4375c4.30957.86231,6.18946,2.60059,6.18946,5.69434,0,3.98535-3.123,6.5-8.22364,6.5-4.86133,0-8.09668-2.31739-8.22363-6.16016Z"/><path class="cls-1" d="M368.41113,67.12085c0,6.48535-3.80078,10.52637-9.835,10.52637-6.04687,0-9.834-4.041-9.834-10.52637,0-6.5,3.78711-10.55469,9.834-10.55469C364.61035,56.56616,368.41113,60.62085,368.41113,67.12085Zm-15.3164,0c0,4.2666,2.13281,6.96582,5.48144,6.96582,3.335,0,5.46875-2.69922,5.46875-6.96582,0-4.28125-2.13379-6.99414-5.46875-6.99414C355.24219,60.12671,353.09473,62.8396,353.09473,67.12085Z"/><path class="cls-1" d="M375.42773,69.67847a4.27421,4.27421,0,1,0,8.54786,0V56.9187h4.26757V70.10229c0,4.49317-3.32031,7.54493-8.53418,7.54493-5.22851,0-8.54882-3.05176-8.54882-7.54493V56.9187h4.26757Z"/><path class="cls-1" d="M396.5166,77.30835V60.43726H390.624V56.9187h16.06543v3.51856h-5.90527V77.30835Z"/><path class="cls-1" d="M433.81445,67.12085c0,6.48535-3.80078,10.52637-9.835,10.52637-6.04687,0-9.834-4.041-9.834-10.52637,0-6.5,3.78711-10.55469,9.834-10.55469C430.01367,56.56616,433.81445,60.62085,433.81445,67.12085Zm-15.3164,0c0,4.2666,2.13281,6.96582,5.48144,6.96582,3.335,0,5.46875-2.69922,5.46875-6.96582,0-4.28125-2.13379-6.99414-5.46875-6.99414C420.64551,60.12671,418.49805,62.8396,418.49805,67.12085Z"/><path class="cls-1" d="M436.56348,77.30835V56.9187H449.916v3.51856h-9.085V65.905H449.125v3.377h-8.29395v8.02637Z"/><path class="cls-1" d="M259.88867,106.52124c0-2.68457,1.97852-4.66211,4.76172-5.19922v-.085c-2.40234-.5791-4.02637-2.33105-4.02637-4.5498,0-3.165,3.1084-5.48243,7.53028-5.48243,4.42285,0,7.51758,2.30371,7.51758,5.49707,0,2.18946-1.61133,3.94141-3.999,4.53516v.085c2.7832.55078,4.74805,2.5293,4.74805,5.21387,0,3.53223-3.40528,5.96289-8.2666,5.96289C263.28027,112.49878,259.88867,110.05444,259.88867,106.52124Zm12.06641-.31055c0-1.83691-1.55371-3.15039-3.80078-3.15039-2.2461,0-3.81446,1.32813-3.81446,3.15039,0,1.85157,1.56836,3.17969,3.81446,3.17969C270.40137,109.39038,271.95508,108.06226,271.95508,106.21069Zm-.49414-9.085c0-1.68164-1.38477-2.83984-3.30664-2.83984-1.93555,0-3.30567,1.1582-3.30567,2.83984,0,1.667,1.37012,2.8252,3.30567,2.8252C270.07617,99.95093,271.46094,98.79272,271.46094,97.12573Z"/><path class="cls-1" d="M288.876,95.13354v-.085h-10.3711V91.657h14.582v3.4336l-8.50683,16.956h-4.47852Z"/><path class="cls-1" d="M303.77441,108.30249H293.62988V104.741a135.35474,135.35474,0,0,1,8.18067-13.084h6.01953v13.24024h2.68457v3.40527h-2.68457v3.74414h-4.05567Zm-6.42871-3.293h6.51368V94.70972h-.085a100.76394,100.76394,0,0,0-6.42871,10.1875Z"/><path class="cls-1" d="M336.56445,112.04663V98.28394h-.11328l-5.53808,13.76269h-2.68457l-5.53907-13.76269h-.11328v13.76269h-3.80078V91.657h4.94531l5.793,14.63867h.11328l5.793-14.63867h4.94629v20.38965Z"/><path class="cls-1" d="M343.7666,112.04663V91.657h4.26758v20.38965Z"/><path class="cls-1" d="M364.61133,112.04663h-13.1836V91.657h4.26758V108.5144h8.916Z"/><path class="cls-1" d="M380.65332,112.04663H367.14551V91.657h13.50781v3.51856h-9.24023v4.917h8.71777v3.27832h-8.71777v5.14355h9.24023Z"/><path class="cls-1" d="M386.99023,106.22534c.26856,1.709,1.99219,2.72656,4.30957,2.72656,2.2754,0,3.82911-1.10156,3.82911-2.59961,0-1.34277-.96094-2.10546-3.51856-2.62792l-2.14746-.42383c-4.06934-.80567-6.06152-2.75586-6.06152-5.79395,0-3.72949,3.25-6.20215,7.78515-6.20215,4.76172,0,7.75782,2.48633,7.82813,6.23047H394.9873c-.14062-1.7373-1.65234-2.7832-3.80078-2.7832-2.10547,0-3.51757.98926-3.51757,2.48633,0,1.25781.98828,2.03515,3.39062,2.51562l2.16211.4375c4.30957.86231,6.18848,2.60059,6.18848,5.69434,0,3.98535-3.12207,6.5-8.22364,6.5-4.86035,0-8.0957-2.31738-8.22363-6.16016Z"/><rect class="cls-2" width="550" height="140.26367"/></g></g></svg>