<svg xmlns="http://www.w3.org/2000/svg" viewBox="0 0 353.09375 88.53906"><defs><style>.cls-1{fill:#1d1d1b;}</style></defs><title>1Asset 1</title><g id="Layer_2" data-name="Layer 2"><g id="Layer_1-2" data-name="Layer 1"><path class="cls-1" d="M12.90967,15.05273V5.06543h-.082l-4.01953,9.9873H6.85986L2.84033,5.06543h-.082v9.9873H0V.25586H3.58887l4.2041,10.623h.082L12.0791.25586H15.668V15.05273Z"/><path class="cls-1" d="M18.12891,15.05273V.25586h3.09668V15.05273Z"/><path class="cls-1" d="M33.25342,15.05273h-9.5669V.25586H26.7832v12.2334h6.47022Z"/><path class="cls-1" d="M44.8916,15.05273H35.08887V.25586H44.8916V2.80957h-6.706V6.37793h6.32666V8.75684H38.18555v3.73242h6.706Z"/><path class="cls-1" d="M49.48535,10.82812c.19483,1.24024,1.4458,1.97852,3.12744,1.97852,1.65088,0,2.77881-.7998,2.77881-1.88672,0-.97363-.69726-1.52734-2.55322-1.90722l-1.55859-.30762c-2.95313-.584-4.39893-1.999-4.39893-4.2041,0-2.707,2.3584-4.501,5.6499-4.501,3.45557,0,5.6294,1.80469,5.68067,4.52148H55.28906c-.10254-1.26074-1.1997-2.01953-2.7583-2.01953-1.52783,0-2.55322.71778-2.55322,1.80469,0,.91211.71777,1.47656,2.46094,1.8252l1.56884.31738c3.12745.626,4.49122,1.88672,4.49122,4.13281,0,2.8916-2.26612,4.7168-5.96778,4.7168-3.52734,0-5.87549-1.68164-5.96777-4.47071Z"/><path class="cls-1" d="M64.07666,7.64941C64.07666,2.88086,66.794,0,71.08008,0c3.5581,0,6.26513,2.25586,6.501,5.56738H74.56641a3.42808,3.42808,0,0,0-3.48633-3.0039c-2.33789,0-3.84522,1.958-3.84522,5.07519,0,3.15821,1.48682,5.10645,3.85547,5.10645A3.34068,3.34068,0,0,0,74.57666,9.915h3.01465c-.34863,3.30176-2.88135,5.38379-6.51123,5.38379C66.77344,15.29883,64.07666,12.42773,64.07666,7.64941Z"/><path class="cls-1" d="M83.03613,15.05273V9.52539L77.88867.25586h3.37354l3.312,6.31641H84.646L87.96826.25586h3.32227L86.13281,9.52539v5.52734Z"/><path class="cls-1" d="M91.46484,7.64941C91.46484,2.88086,94.18213,0,98.46826,0c3.55811,0,6.26514,2.25586,6.501,5.56738h-3.01465a3.42808,3.42808,0,0,0-3.48633-3.0039c-2.33789,0-3.84521,1.958-3.84521,5.07519,0,3.15821,1.48681,5.10645,3.85547,5.10645A3.34068,3.34068,0,0,0,101.96484,9.915h3.01465c-.34863,3.30176-2.88135,5.38379-6.51123,5.38379C94.16162,15.29883,91.46484,12.42773,91.46484,7.64941Z"/><path class="cls-1" d="M116.45361,15.05273h-9.56689V.25586h3.09668v12.2334h6.47021Z"/><path class="cls-1" d="M128.0918,15.05273h-9.80274V.25586h9.80274V2.80957h-6.70606V6.37793h6.32666V8.75684h-6.32666v3.73242h6.70606Z"/><path class="cls-1" d="M135.97705.25586c4.43994,0,7.05469,2.64551,7.05469,7.3418s-2.61475,7.45507-7.05469,7.45507h-5.6499V.25586Zm-2.55322,12.2334h2.18408c2.76855,0,4.26563-1.68164,4.26563-4.88086,0-3.09668-1.53809-4.79883-4.26563-4.79883h-2.18408Z"/><path class="cls-1" d="M149.18408,15.05273V.25586h6.43946c2.7788,0,4.522,1.42578,4.522,3.69141a3.26458,3.26458,0,0,1-2.77881,3.21v.082a3.58789,3.58789,0,0,1,3.48633,3.57812c0,2.6045-1.9585,4.23535-5.1167,4.23535Zm3.09668-8.64453h2.2251c1.65088,0,2.59424-.72754,2.59424-1.97851,0-1.18946-.83057-1.86621-2.27637-1.86621h-2.543Zm2.666,6.33692c1.78418,0,2.748-.75879,2.748-2.17383,0-1.38379-.99462-2.12207-2.81982-2.12207h-2.59424v4.2959Z"/><path class="cls-1" d="M172.41943,15.05273H162.6167V.25586h9.80273V2.80957h-6.70605V6.37793H172.04V8.75684h-6.32666v3.73242h6.70605Z"/><path class="cls-1" d="M178.19238,15.05273V2.80957H173.9165V.25586h11.6587V2.80957h-4.28614V15.05273Z"/><path class="cls-1" d="M193.33789,15.05273H190.415L186.49805.25586h3.209l2.32813,10.71582h.082L194.88574.25586H197.5l2.76953,10.71582h.082L202.68945.25586h3.209L201.9707,15.05273h-2.92187L196.23926,4.94238h-.09278Z"/><path class="cls-1" d="M217.3623,15.05273h-9.80273V.25586h9.80273V2.80957h-6.70605V6.37793h6.32617V8.75684h-6.32617v3.73242h6.70605Z"/><path class="cls-1" d="M229.40039,15.05273h-9.80273V.25586h9.80273V2.80957h-6.706V6.37793h6.32714V8.75684h-6.32714v3.73242h6.706Z"/><path class="cls-1" d="M231.63574,15.05273V.25586h2.584l6.91113,9.63867h.082V.25586h2.96289V15.05273h-2.5625L234.69141,5.3623h-.0918v9.69043Z"/><path class="cls-1" d="M253.88672,9.51562a3.10177,3.10177,0,1,0,6.20312,0V.25586h3.09766V9.82324c0,3.26074-2.41016,5.47559-6.19336,5.47559-3.79492,0-6.2041-2.21485-6.2041-5.47559V.25586h3.09668Z"/><path class="cls-1" d="M268.00684,10.82812c.19433,1.24024,1.44628,1.97852,3.12793,1.97852,1.65039,0,2.77832-.7998,2.77832-1.88672,0-.97363-.69727-1.52734-2.55371-1.90722l-1.5586-.30762c-2.95312-.584-4.39844-1.999-4.39844-4.2041,0-2.707,2.3584-4.501,5.65039-4.501,3.45508,0,5.62891,1.80469,5.67969,4.52148h-2.92187C273.708,3.26074,272.61133,2.502,271.05273,2.502c-1.52832,0-2.55371.71778-2.55371,1.80469,0,.91211.71778,1.47656,2.46094,1.8252l1.56934.31738c3.127.626,4.49023,1.88672,4.49023,4.13281,0,2.8916-2.26562,4.7168-5.9668,4.7168-3.52734,0-5.876-1.68164-5.96875-4.47071Z"/><path class="cls-1" d="M285.417,10.82812c.19434,1.24024,1.44629,1.97852,3.12793,1.97852,1.65039,0,2.77832-.7998,2.77832-1.88672,0-.97363-.69726-1.52734-2.55371-1.90722l-1.55859-.30762c-2.95313-.584-4.39844-1.999-4.39844-4.2041,0-2.707,2.3584-4.501,5.65039-4.501,3.45508,0,5.62891,1.80469,5.67969,4.52148H291.2207c-.10254-1.26074-1.19922-2.01953-2.75781-2.01953-1.52832,0-2.55371.71778-2.55371,1.80469,0,.91211.71777,1.47656,2.46094,1.8252l1.56933.31738c3.127.626,4.49024,1.88672,4.49024,4.13281,0,2.8916-2.26563,4.7168-5.9668,4.7168-3.52734,0-5.876-1.68164-5.96875-4.47071Z"/><path class="cls-1" d="M310.12891,7.65918c0,4.707-2.75782,7.63965-7.13672,7.63965-4.38867,0-7.13672-2.93262-7.13672-7.63965,0-4.7168,2.748-7.65918,7.13672-7.65918C307.37109,0,310.12891,2.94238,310.12891,7.65918Zm-11.11524,0c0,3.09668,1.54883,5.05566,3.97852,5.05566,2.41992,0,3.96875-1.959,3.96875-5.05566,0-3.10645-1.54883-5.0752-3.96875-5.0752S299.01367,4.55273,299.01367,7.65918Z"/><path class="cls-1" d="M316.27148,15.05273V.25586h9.68946V2.80957h-6.59278V6.77734h6.01856V9.22852h-6.01856v5.82421Z"/><path class="cls-1" d="M335.32422,11.46387H330.125l-1.12793,3.58886h-3.17871L330.95508.25586h3.64062l5.14746,14.79687h-3.292ZM330.791,9.14648h3.86621l-1.89746-6.06054h-.07129Z"/><path class="cls-1" d="M344.34668,15.05273H341.25V.25586h6.06055c3.40429,0,5.35156,1.79492,5.35156,4.7168a4.34876,4.34876,0,0,1-2.68555,4.2041l3.11719,5.876h-3.50781l-2.75782-5.41406h-2.48144Zm0-7.66015h2.666a2.22034,2.22034,0,0,0,2.47168-2.3584,2.26993,2.26993,0,0,0-2.502-2.3584h-2.63574Z"/><path class="cls-1" d="M5.47217,70.30078H16.88184c.69482,5.11133,5.07031,8.46484,10.75488,8.46484,6.50195,0,11-4.457,11-10.87792,0-6.3379-4.498-10.7959-10.959-10.7959a11.47815,11.47815,0,0,0-10.42822,5.7666H6.49463L9.19336,28.22168H46.85645v9.81445H19.00781L17.57666,54.63867h.24561c2.45361-3.96679,7.31982-6.37988,13.29-6.37988,11.2461,0,19.30176,8.09766,19.30176,19.34277,0,12.47266-9.28271,20.9375-22.81836,20.9375C14.95947,88.53906,5.79932,81.01465,5.47217,70.30078Z"/><path class="cls-1" d="M78.38867,26.91309c12.63623,0,20.97852,7.36035,20.97852,17.1748,0,7.23828-3.55762,11.69531-13.53565,21.22363L73.44092,77.1709V77.416h26.74414v9.81445h-42.897V78.76562l20.89648-19.792c7.4834-7.19726,9.16016-10.01953,9.16016-14.1084,0-4.74414-3.63965-8.34277-8.95606-8.34277-5.88867,0-10.3457,3.9668-10.3457,9.65137H56.59277C56.59277,34.80566,65.58936,26.91309,78.38867,26.91309Z"/><path class="cls-1" d="M122.55713,39.54883H122.312L107.26318,49.77246v-10.96L122.5166,28.22168h12.26758V87.23047h-12.227Z"/><path class="cls-1" d="M173.56738,50.71484V36.95312h-.11328l-5.53857,13.76172H165.231l-5.53907-13.76172h-.11279V50.71484h-3.80078V30.32617h4.94531l5.793,14.6377h.11328l5.793-14.6377h4.94531V50.71484Z"/><path class="cls-1" d="M180.76855,50.71484V30.32617h4.26758V50.71484Z"/><path class="cls-1" d="M201.61328,50.71484H188.42969V30.32617h4.26758V47.18262h8.916Z"/><path class="cls-1" d="M217.65625,50.71484H204.14844V30.32617h13.50781v3.51856H208.416v4.917h8.71679v3.27734H208.416v5.14356h9.24023Z"/><path class="cls-1" d="M223.99219,44.89355c.26953,1.71,1.99219,2.72754,4.31054,2.72754,2.27442,0,3.82813-1.10254,3.82813-2.60058,0-1.3418-.96094-2.10449-3.51758-2.62793l-2.14844-.42383c-4.06836-.80566-6.06054-2.75488-6.06054-5.793,0-3.73047,3.25-6.20312,7.78515-6.20312,4.76172,0,7.75684,2.4873,7.82715,6.23144h-4.02637c-.1416-1.73828-1.65332-2.7832-3.80078-2.7832-2.10547,0-3.51855.98828-3.51855,2.48633,0,1.25781.98926,2.03515,3.3916,2.51465l2.16211.43847c4.30859.86231,6.18848,2.59961,6.18848,5.69434,0,3.98437-3.12305,6.5-8.22364,6.5-4.86133,0-8.09668-2.31739-8.22363-6.16114Z"/><path class="cls-1" d="M263.77734,40.52734c0,6.48536-3.80078,10.52735-9.835,10.52735-6.04687,0-9.834-4.042-9.834-10.52735,0-6.499,3.78711-10.55468,9.834-10.55468C259.97656,29.97266,263.77734,34.02832,263.77734,40.52734Zm-15.3164,0c0,4.26758,2.13281,6.96582,5.48144,6.96582,3.335,0,5.46875-2.69824,5.46875-6.96582,0-4.28125-2.13379-6.99414-5.46875-6.99414C250.6084,33.5332,248.46094,36.24609,248.46094,40.52734Z"/><path class="cls-1" d="M270.794,43.085a4.27422,4.27422,0,1,0,8.54785,0V30.32617h4.26758V43.50879c0,4.49316-3.32032,7.5459-8.53418,7.5459-5.22852,0-8.54883-3.05274-8.54883-7.5459V30.32617H270.794Z"/><path class="cls-1" d="M291.88281,50.71484V33.84473h-5.89258V30.32617h16.06543v3.51856h-5.90527V50.71484Z"/><path class="cls-1" d="M329.18066,40.52734c0,6.48536-3.80078,10.52735-9.835,10.52735-6.04687,0-9.834-4.042-9.834-10.52735,0-6.499,3.78711-10.55468,9.834-10.55468C325.37988,29.97266,329.18066,34.02832,329.18066,40.52734Zm-15.3164,0c0,4.26758,2.13281,6.96582,5.48144,6.96582,3.335,0,5.46875-2.69824,5.46875-6.96582,0-4.28125-2.13379-6.99414-5.46875-6.99414C316.01172,33.5332,313.86426,36.24609,313.86426,40.52734Z"/><path class="cls-1" d="M331.92969,50.71484V30.32617h13.35254v3.51856h-9.085V39.3125h8.29394v3.377h-8.29394v8.02539Z"/><path class="cls-1" d="M155.25537,79.92871c0-2.68457,1.978-4.66309,4.76172-5.20019v-.084c-2.40234-.58008-4.02686-2.332-4.02686-4.5498,0-3.165,3.1084-5.48243,7.53077-5.48243,4.42285,0,7.51709,2.30274,7.51709,5.4961,0,2.19043-1.61084,3.94238-3.99854,4.53613v.084c2.7832.55175,4.74756,2.52929,4.74756,5.21386,0,3.53321-3.40527,5.96289-8.26611,5.96289C158.64648,85.90527,155.25537,83.46094,155.25537,79.92871Zm12.06641-.31055c0-1.83691-1.5542-3.15136-3.80078-3.15136s-3.81495,1.32812-3.81495,3.15136c0,1.85059,1.56836,3.17872,3.81495,3.17872S167.32178,81.46875,167.32178,79.61816Zm-.49414-9.08593c0-1.68164-1.38477-2.83985-3.30664-2.83985-1.93555,0-3.30616,1.15821-3.30616,2.83985,0,1.668,1.37061,2.82617,3.30616,2.82617C165.44287,73.3584,166.82764,72.2002,166.82764,70.53223Z"/><path class="cls-1" d="M184.24219,68.54v-.085h-10.3711V65.06445h14.582v3.4336l-8.50634,16.95507h-4.479Z"/><path class="cls-1" d="M199.14062,81.709H188.99609V78.14844a135.35474,135.35474,0,0,1,8.18067-13.084h6.01953V78.30371h2.68457V81.709h-2.68457v3.74414h-4.05567Zm-6.42871-3.292h6.51368V68.11621h-.085a100.76394,100.76394,0,0,0-6.42871,10.1875Z"/><path class="cls-1" d="M231.93164,85.45312V71.69141h-.11328L226.2793,85.45312h-2.68457l-5.53907-13.76171h-.1123V85.45312H214.1416V65.06445h4.94629l5.793,14.6377h.1123l5.794-14.6377h4.94531V85.45312Z"/><path class="cls-1" d="M239.13281,85.45312V65.06445h4.26758V85.45312Z"/><path class="cls-1" d="M259.97754,85.45312H246.794V65.06445h4.26757V81.9209h8.916Z"/><path class="cls-1" d="M276.01953,85.45312H262.51172V65.06445h13.50781V68.583H266.7793V73.5h8.71777v3.27734H266.7793V81.9209h9.24023Z"/><path class="cls-1" d="M282.35645,79.63184c.26855,1.71,1.99218,2.72754,4.30957,2.72754,2.27539,0,3.8291-1.10254,3.8291-2.60059,0-1.3418-.96094-2.10449-3.51856-2.62793L284.8291,76.707c-4.06933-.80566-6.06152-2.75488-6.06152-5.793,0-3.73047,3.25-6.20312,7.78515-6.20312,4.76172,0,7.75782,2.4873,7.82813,6.23144h-4.02734c-.14063-1.73828-1.65235-2.7832-3.80079-2.7832-2.10546,0-3.51757.98828-3.51757,2.48633,0,1.25781.98828,2.03515,3.39062,2.51465l2.16211.43847c4.30957.86231,6.18848,2.59961,6.18848,5.69434,0,3.98437-3.12207,6.5-8.22364,6.5-4.86035,0-8.0957-2.31738-8.22363-6.16113Z"/></g></g></svg>